HIERARCHY
ROOT Hips
{
	OFFSET -0.001795 -0.223333 0.028219
	CHANNELS 6 Xposition Yposition Zposition Zrotation Yrotation Xrotation 
	JOINT LeftUpLeg
	{
		OFFSET 0.069520 -0.091406 -0.006815
		CHANNELS 3 Zrotation Yrotation Xrotation
		JOINT LeftLeg
		{
			OFFSET 0.034277 -0.375199 -0.004496
			CHANNELS 3 Zrotation Yrotation Xrotation
			JOINT LeftFoot
			{
				OFFSET -0.013596 -0.397961 -0.043693
				CHANNELS 3 Zrotation Yrotation Xrotation
				JOINT LeftToe
				{
					OFFSET 0.026358 -0.055791 0.119288
					CHANNELS 3 Zrotation Yrotation Xrotation
					End Site
					{
						OFFSET 0.000000 0.000000 0.000000
					}
				}
			}
		}
	}
	JOINT RightUpLeg
	{
		OFFSET -0.067670 -0.090522 -0.004320
		CHANNELS 3 Zrotation Yrotation Xrotation
		JOINT RightLeg
		{
			OFFSET -0.038290 -0.382569 -0.008850
			CHANNELS 3 Zrotation Yrotation Xrotation
			JOINT RightFoot
			{
				OFFSET 0.015774 -0.398415 -0.042312
				CHANNELS 3 Zrotation Yrotation Xrotation
				JOINT RightToe
				{
					OFFSET -0.025372 -0.048144 0.123348
					CHANNELS 3 Zrotation Yrotation Xrotation
					End Site
					{
						OFFSET 0.000000 0.000000 0.000000
					}
				}
			}
		}
	}
	JOINT Spine
	{
		OFFSET -0.002533 0.108963 -0.026696
		CHANNELS 3 Zrotation Yrotation Xrotation
		JOINT Spine1
		{
			OFFSET 0.005487 0.135180 0.001092
			CHANNELS 3 Zrotation Yrotation Xrotation
			JOINT Spine2
			{
				OFFSET 0.001457 0.052922 0.025425
				CHANNELS 3 Zrotation Yrotation Xrotation
				JOINT Neck
				{
					OFFSET -0.002778 0.213870 -0.042857
					CHANNELS 3 Zrotation Yrotation Xrotation
					JOINT Head
					{
						OFFSET 0.005152 0.064970 0.051349
						CHANNELS 3 Zrotation Yrotation Xrotation
						End Site
						{
							OFFSET 0.000000 0.000000 0.000000
						}
					}
				}
				JOINT LeftShoulder
				{
					OFFSET 0.078845 0.121749 -0.034090
					CHANNELS 3 Zrotation Yrotation Xrotation
					JOINT LeftArm
					{
						OFFSET 0.090977 0.030469 -0.008868
						CHANNELS 3 Zrotation Yrotation Xrotation
						JOINT LeftForeArm
						{
							OFFSET 0.259612 -0.012772 -0.027456
							CHANNELS 3 Zrotation Yrotation Xrotation
							JOINT LeftHand
							{
								OFFSET 0.249234 0.008986 -0.001171
								CHANNELS 3 Zrotation Yrotation Xrotation
								End Site
								{
									OFFSET 0.000000 0.000000 0.000000
								}
							}
						}
					}
				}
				JOINT RightShoulder
				{
					OFFSET -0.081759 0.118833 -0.038615
					CHANNELS 3 Zrotation Yrotation Xrotation
					JOINT RightArm
					{
						OFFSET -0.096012 0.032551 -0.009143
						CHANNELS 3 Zrotation Yrotation Xrotation
						JOINT RightForeArm
						{
							OFFSET -0.253742 -0.013329 -0.021401
							CHANNELS 3 Zrotation Yrotation Xrotation
							JOINT RightHand
							{
								OFFSET -0.255298 0.007772 -0.005559
								CHANNELS 3 Zrotation Yrotation Xrotation
								End Site
								{
									OFFSET 0.000000 0.000000 0.000000
								}
							}
						}
					}
				}
			}
		}
	}
}
MOTION
Frames: 13
Frame Time: 0.050000
0.000000 0.948855 0.000000 -2.001546 7.747495 6.578093 6.583332 -0.360901 -1.916401 4.397965 -0.485585 0.849187 3.040506 11.258424 15.818682 0.000000 0.000000 0.000000 -2.604558 0.404788 -4.234971 -1.378852 -0.088935 -4.773273 -1.178002 -8.787421 26.232821 0.000000 0.000000 0.000000 1.273305 0.138493 -3.880537 0.617109 -0.093194 -3.722439 -1.995854 -1.042970 5.373528 3.096960 -0.635284 -13.807613 0.000000 0.000000 0.000000 -16.637076 2.891030 -3.779379 -51.673895 -3.105656 -4.763709 -13.961404 -23.891994 3.658068 0.000000 0.000000 0.000000 17.210535 -5.269527 -3.563754 59.420472 2.564187 -4.502329 6.003136 18.010279 1.553738 0.000000 0.000000 0.000000 
0.000284 0.947549 0.000376 -2.117113 7.472789 7.124019 6.516808 -0.363092 -1.912667 4.647353 -0.445688 -0.015802 3.267673 11.510856 15.654741 0.000000 0.000000 0.000000 -3.030792 0.459502 -5.013274 -0.488070 -0.143409 -4.508410 -1.125177 -8.700376 25.852718 0.000000 0.000000 0.000000 0.952366 0.141464 -4.000692 0.481937 -0.026180 -3.955466 -1.450219 -0.846547 4.758882 2.309892 -0.030026 -14.823508 0.000000 0.000000 0.000000 -16.967704 4.667460 -4.727350 -50.804500 -1.934751 -5.100303 -18.570304 -26.818550 5.206498 0.000000 0.000000 0.000000 17.319670 -5.663076 -3.821876 59.250149 1.709058 -4.836898 7.316149 19.692632 1.921345 0.000000 0.000000 0.000000 
0.000565 0.947239 0.000418 -1.949095 8.048087 7.182837 6.491880 -0.376786 -2.134670 4.524281 -0.435158 0.052145 2.985705 11.122241 15.428610 0.000000 0.000000 0.000000 -3.160717 0.472740 -5.299091 -0.536267 -0.109236 -3.889613 -1.502861 -9.103702 25.692967 0.000000 0.000000 0.000000 0.434866 0.130828 -3.800013 1.112308 -0.205383 -5.439034 -1.962620 -1.755758 5.573680 1.620636 0.363611 -14.997933 0.000000 0.000000 0.000000 -15.714119 5.049685 -4.571019 -51.347977 -1.607311 -5.402858 -21.675791 -30.702305 6.910443 0.000000 0.000000 0.000000 17.542123 -4.462614 -3.266347 58.585649 2.102992 -4.707921 7.878300 20.694832 2.122203 0.000000 0.000000 0.000000 
0.000848 0.947264 0.000315 -2.144805 8.673275 7.486070 7.073734 -0.422189 -2.444034 4.045637 -0.357291 -0.311065 2.698096 10.735179 15.278450 0.000000 0.000000 0.000000 -3.366247 0.511006 -5.956798 0.254770 -0.148910 -3.208216 -1.830965 -9.477060 25.858294 0.000000 0.000000 0.000000 0.243276 0.135193 -3.983309 0.756373 -0.091593 -4.688904 -1.378515 -2.901322 4.059633 1.121866 0.518684 -14.219152 0.000000 0.000000 0.000000 -15.352763 5.838654 -4.742670 -50.862229 -2.185583 -4.986392 -27.150504 -36.808496 10.347759 0.000000 0.000000 0.000000 16.575028 -4.276680 -3.300927 58.465873 2.201409 -4.475962 10.217287 22.767194 2.742626 0.000000 0.000000 0.000000 
0.001076 0.947155 -0.000175 -2.001099 9.297147 7.156213 6.991856 -0.414909 -2.141145 4.073946 -0.342675 -0.509497 2.352117 10.258896 15.099733 0.000000 0.000000 0.000000 -3.428272 0.489937 -5.782187 0.155640 -0.119401 -2.700842 -2.190684 -9.864622 25.775782 0.000000 0.000000 0.000000 -0.264405 0.115608 -3.412417 1.346505 -0.326196 -4.797059 -1.827368 -3.133047 3.859777 0.414518 0.898651 -13.257423 0.000000 0.000000 0.000000 -14.562665 6.044531 -4.727944 -48.944266 -3.779854 -4.135745 -37.425269 -45.546141 17.605130 0.000000 0.000000 0.000000 16.582599 -4.397398 -3.324496 57.578663 2.848182 -4.086350 12.802822 25.452837 3.682974 0.000000 0.000000 0.000000 
0.001197 0.947648 -0.001133 -2.180797 9.690588 7.092976 7.274450 -0.429986 -2.036554 4.006557 -0.306139 -0.909434 2.126850 9.987034 15.145967 0.000000 0.000000 0.000000 -3.349710 0.498431 -5.914792 0.391896 -0.131919 -2.409686 -2.347101 -10.050552 26.063876 0.000000 0.000000 0.000000 -0.665471 0.110109 -3.222328 1.481152 -0.407230 -4.355609 -1.341105 -3.078819 2.914400 0.264302 0.922565 -12.212508 0.000000 0.000000 0.000000 -13.813967 5.613861 -4.416405 -45.868067 -8.090635 -2.205060 -48.378162 -54.852789 27.962236 0.000000 0.000000 0.000000 15.464652 -3.995681 -2.986439 56.965181 3.486005 -3.640184 15.646955 28.433692 4.871083 0.000000 0.000000 0.000000 
0.001351 0.947725 -0.002469 -2.105060 9.981631 6.843553 6.882151 -0.415985 -2.142068 4.588871 -0.386333 -0.510512 1.982425 9.792008 15.042535 0.000000 0.000000 0.000000 -3.466679 0.493896 -5.984689 0.457738 -0.118599 -1.840546 -2.516374 -10.237914 26.045577 0.000000 0.000000 0.000000 -0.968920 0.098373 -2.760830 1.614777 -0.476947 -4.124826 -1.385029 -3.347038 2.183856 -0.382163 1.230513 -10.968747 0.000000 0.000000 0.000000 -12.728049 4.252974 -3.578200 -41.563956 -14.198282 0.042455 -54.257841 -66.200897 39.177872 0.000000 0.000000 0.000000 14.999557 -2.665950 -2.306570 55.801810 4.591888 -2.999637 18.660225 31.351348 6.247635 0.000000 0.000000 0.000000 
0.001602 0.948366 -0.003963 -2.240495 10.697169 6.586249 6.914104 -0.420576 -2.003763 4.933037 -0.391063 -0.802890 1.580106 9.295999 15.054997 0.000000 0.000000 0.000000 -3.139942 0.507097 -6.100294 0.193517 -0.065428 -1.157788 -2.864729 -10.636466 26.364398 0.000000 0.000000 0.000000 -0.986282 0.087130 -2.370336 1.749746 -0.575626 -3.471474 -1.541795 -3.544628 0.942557 -0.453584 1.175525 -9.505251 0.000000 0.000000 0.000000 -11.603888 1.898811 -2.376764 -37.014767 -21.530930 2.194403 -33.651678 -78.861312 30.498813 0.000000 0.000000 0.000000 14.946079 -1.922706 -1.926529 54.998112 5.337672 -2.514643 21.132669 33.855163 7.560525 0.000000 0.000000 0.000000 
0.002193 0.948818 -0.005034 -2.453056 11.110601 6.535554 6.939638 -0.427063 -1.999424 5.316429 -0.400359 -1.084631 1.363149 9.040101 15.080705 0.000000 0.000000 0.000000 -3.205257 0.494540 -5.993172 0.688004 -0.128738 -1.343345 -2.985396 -10.777303 26.769682 0.000000 0.000000 0.000000 -1.017093 0.073785 -1.840515 2.212776 -0.771615 -3.517498 -1.507544 -4.148613 0.073806 -0.610781 1.173809 -8.443655 0.000000 0.000000 0.000000 -10.193270 -0.219184 -1.210328 -33.072427 -28.188888 3.614616 47.953564 -77.985760 -36.731585 0.000000 0.000000 0.000000 15.061041 -1.707883 -1.925983 54.748798 6.011001 -2.116563 22.075683 35.588743 8.235486 0.000000 0.000000 0.000000 
0.003169 0.949010 -0.005283 -2.717238 11.580204 6.547272 6.986597 -0.447140 -2.390458 5.743842 -0.464019 -0.737493 1.185389 8.794316 14.924517 0.000000 0.000000 0.000000 -3.043424 0.506199 -6.100565 0.857098 -0.143807 -1.172501 -3.182913 -10.998648 27.074424 0.000000 0.000000 0.000000 -1.036981 0.070945 -1.730437 2.283536 -0.792602 -3.593349 -1.143967 -5.226632 -0.391830 -1.393977 1.622127 -8.049021 0.000000 0.000000 0.000000 -8.741684 -1.298222 -0.475152 -29.852657 -33.146073 4.290158 74.104781 -68.672831 -51.277602 0.000000 0.000000 0.000000 15.453264 -0.762918 -1.681243 53.878168 5.690712 -2.185424 23.866491 37.308467 9.148217 0.000000 0.000000 0.000000 
0.004689 0.948683 -0.004649 -2.829783 11.258577 6.681740 7.022945 -0.443094 -2.268431 5.656402 -0.437922 -0.975913 1.393751 9.030368 14.835900 0.000000 0.000000 0.000000 -3.100136 0.506604 -6.094427 0.961221 -0.163991 -1.465285 -2.999667 -10.797817 27.057362 0.000000 0.000000 0.000000 -1.002615 0.076548 -1.947032 2.518446 -0.927721 -3.240830 -1.045190 -5.596884 -0.981500 -1.622891 1.688985 -7.058396 0.000000 0.000000 0.000000 -8.041164 -1.992972 -0.061430 -26.257393 -35.700961 4.114162 81.407129 -62.530575 -51.651862 0.000000 0.000000 0.000000 15.988001 -0.781402 -1.880004 53.337896 4.981085 -2.406434 24.647060 38.898999 9.756596 0.000000 0.000000 0.000000 
0.006540 0.947840 -0.003524 -2.950987 10.952804 6.795320 6.847192 -0.431266 -2.199565 5.936654 -0.461445 -1.020032 1.645001 9.285507 14.586245 0.000000 0.000000 0.000000 -3.048706 0.520801 -6.220900 0.863229 -0.150533 -1.408941 -2.883038 -10.666122 26.832362 0.000000 0.000000 0.000000 -1.042873 0.085256 -2.243389 2.872434 -1.075951 -3.364743 -0.994697 -6.093362 -0.925603 -2.101458 1.992997 -7.202832 0.000000 0.000000 0.000000 -8.276019 -2.273746 0.106258 -24.197119 -36.035655 3.697763 89.744588 -61.412230 -57.169216 0.000000 0.000000 0.000000 16.161258 -0.598260 -1.941961 53.052810 4.441347 -2.613474 25.489075 39.427667 10.103639 0.000000 0.000000 0.000000 
0.008342 0.946745 -0.002408 -3.014249 10.368366 6.855841 6.896975 -0.414605 -1.747751 5.641686 -0.400611 -1.480737 2.017854 9.682011 14.339265 0.000000 0.000000 0.000000 -3.134386 0.527680 -6.304591 0.859387 -0.148117 -1.373475 -2.637089 -10.386871 26.444734 0.000000 0.000000 0.000000 -1.074824 0.093244 -2.510951 3.092404 -1.216314 -2.924455 -0.837377 -6.385423 -1.449976 -1.997927 1.869622 -6.713403 0.000000 0.000000 0.000000 -8.980878 -1.946398 -0.023147 -22.486204 -35.165063 3.175829 99.112525 -65.160781 -69.007701 0.000000 0.000000 0.000000 16.446493 -1.110265 -2.390081 52.424548 3.265461 -3.012366 26.550783 39.972503 10.515013 0.000000 0.000000 0.000000 
